<?xml version="1.0" encoding="utf-8"?>
<!-- Generator: Adobe Illustrator 16.0.0, SVG Export Plug-In . SVG Version: 6.00 Build 0)  -->
<!DOCTYPE svg PUBLIC "-//W3C//DTD SVG 1.1//EN" "http://www.w3.org/Graphics/SVG/1.1/DTD/svg11.dtd">
<svg version="1.1" id="Your_Icon" xmlns="http://www.w3.org/2000/svg" xmlns:xlink="http://www.w3.org/1999/xlink" x="0px" y="0px"
	 width="100px" height="100px" viewBox="0 0 100 100" enable-background="new 0 0 100 100" xml:space="preserve">
<g>
	<g>
		<defs>
			<rect id="SVGID_1_" x="3.075" y="4.5" width="93.85" height="91"/>
		</defs>
		<clipPath id="SVGID_2_">
			<use xlink:href="#SVGID_1_"  overflow="visible"/>
		</clipPath>
		<path clip-path="url(#SVGID_2_)" d="M44.56,74.632H30.351v4.563H44.56V74.632z M57.087,66.195H30.351v4.563h26.736V66.195z
			 M57.087,57.759H30.351v4.564h26.736V57.759z M44.56,40.889H30.351v4.563H44.56V40.889z M57.087,32.454H30.351v4.563h26.736
			V32.454z M57.087,24.016H30.351v4.564h26.736V24.016z M30.351,20.145h39.785v-4.563H30.351V20.145z M30.351,53.889h39.785v-4.564
			H30.351V53.889z M92.661,24.062H78.452v-7.394c0-4.201,3.182-7.607,7.106-7.607c3.923,0,7.103,3.405,7.103,7.607V24.062
			L92.661,24.062z M76.687,9.064c-1.205,1.61-2.033,3.555-2.348,5.684v69.396h-0.296c-0.383,3.813-3.365,6.794-7.026,6.794H23.313
			c1.561-2.085,2.497-4.728,2.497-7.606V65.345h0.012v-35.74h0.058V16.669c0-4.2,3.181-7.605,7.104-7.605H76.687z M21.547,83.331
			c0,4.203-3.182,7.608-7.105,7.608c-3.922,0-7.104-3.405-7.104-7.608v-7.392h14.209V83.331z M96.925,28.625V16.669
			c0-6.721-5.089-12.168-11.367-12.168H32.984c-6.276,0-11.366,5.448-11.366,12.168v17.985l-0.011,0.617l-0.06,26.764l0,0V66.6
			v4.563v4.564V62.036v9.342H3.075v11.954c0,6.722,5.089,12.169,11.367,12.169h52.575c6.275,0,11.364-5.447,11.364-12.169V65.345
			h0.071V37.966H78.45v-4.564v-4.565v-4.562l0.002,13.691v-9.341H96.925z"/>
	</g>
</g>
</svg>
