<?xml version="1.0" encoding="utf-8"?>
<!-- Generator: Adobe Illustrator 16.0.0, SVG Export Plug-In . SVG Version: 6.00 Build 0)  -->
<!DOCTYPE svg PUBLIC "-//W3C//DTD SVG 1.1//EN" "http://www.w3.org/Graphics/SVG/1.1/DTD/svg11.dtd">
<svg version="1.1" id="Layer_1" xmlns="http://www.w3.org/2000/svg" xmlns:xlink="http://www.w3.org/1999/xlink" x="0px" y="0px"
	 width="440px" height="159px" viewBox="0 0 440 159" enable-background="new 0 0 440 159" xml:space="preserve">
<polygon fill-rule="evenodd" clip-rule="evenodd" fill="#FFFFFF" fill-opacity="0.5" points="128.5,67.148 123.382,72 
	123.889,64.871 117,63.792 122.75,59.753 119.278,53.555 125.941,55.648 128.5,49 131.059,55.648 137.722,53.555 134.25,59.753 
	140,63.792 133.111,64.871 133.618,72 "/>
<polygon fill-rule="evenodd" clip-rule="evenodd" fill="#FFFFFF" fill-opacity="0.5" points="267.5,67.148 262.382,72 
	262.889,64.871 256,63.792 261.75,59.753 258.277,53.555 264.941,55.648 267.5,49 270.059,55.648 276.723,53.555 273.25,59.753 
	279,63.792 272.111,64.871 272.618,72 "/>
<path fill-rule="evenodd" clip-rule="evenodd" fill="#FFFFFF" d="M438.519,113.498V99.176L428.2,97.944
	c-2.002-0.154-2.464-0.925-2.464-2.927V20.482c0-2.31,0.154-2.618,2.464-2.926l10.318-1.232V2.002H392.78l-24.794,68.222h-1.078
	L342.576,2.002h-46.97v14.476l9.702,1.078c2.155,0.308,2.464,0.77,2.464,3.08v74.381c0,2.311-0.309,2.927-2.464,3.08l-9.702,1.078
	v14.322h50.357V99.176l-13.09-1.231c-2.31-0.154-2.464-0.616-2.464-3.08V47.278h0.924l17.248,46.508h30.646l17.401-46.2h0.925
	v47.432c0,2.156-0.309,2.927-2.465,3.08l-12.628,1.078v14.322H438.519z M222.068,113.498V99.022L199.43,97.79
	c-2.31-0.308-2.464-0.616-2.464-3.08V68.068h32.494v-20.79h-32.494V22.022h16.632c1.694,0,2.31,0.462,2.618,2.002l2.156,11.704
	l20.944,0.77V2.002h-84.084v14.476l9.702,1.078c2.156,0.154,2.464,0.77,2.464,3.08v74.381c0,2.311-0.308,2.772-2.464,3.08
	l-9.702,1.078v14.322H222.068z M94.402,74.844H74.074l-2.31,14.629c-0.462,2.618-0.924,2.927-3.08,3.389
	c-2.926,0.615-7.854,1.231-11.704,1.231c-16.17,0-26.334-11.55-26.334-36.652c0-24.332,10.626-35.728,27.412-35.728
	c3.696,0,7.084,0.462,10.318,1.078c1.386,0.308,2.156,0.924,2.464,2.618l2.464,15.4l20.944,1.694V8.932
	C85.316,3.234,70.994,0,58.674,0C19.558,0,0,24.486,0,57.442c0,36.344,16.324,57.904,54.978,57.904
	c14.014,0,30.03-3.233,39.424-8.777V74.844z"/>
<g>
	
		<line fill="none" stroke="#FFFFFF" stroke-width="3" stroke-linecap="square" stroke-miterlimit="10" stroke-opacity="0.5" x1="5.5" y1="151.75" x2="97.503" y2="151.75"/>
	
		<line fill="none" stroke="#FFFFFF" stroke-width="3" stroke-linecap="square" stroke-miterlimit="10" stroke-opacity="0.5" x1="346.5" y1="153.75" x2="438.503" y2="153.75"/>
</g>
<g>
	<polygon fill-rule="evenodd" clip-rule="evenodd" fill="#FFFFFF" points="122,158 131,158 131,155.68 124.728,155.68 124.728,144 
		122,144 	"/>
	<polygon fill-rule="evenodd" clip-rule="evenodd" fill="#FFFFFF" points="167,158 177,158 177,155.68 169.851,155.68 
		169.851,152.08 176.369,152.08 176.369,149.74 169.851,149.74 169.851,146.32 176.979,146.32 176.979,144 167,144 	"/>
	<path fill-rule="evenodd" clip-rule="evenodd" fill="#FFFFFF" d="M225.849,149.192c-0.086-2.987-2.414-5.192-6.316-5.192
		c-4.118,0-6.532,2.555-6.532,6.429v2.102c0,3.585,2.113,6.47,6.597,6.47c3.88,0,6.403-2.411,6.403-5.872v-1.875h-6.338v2.349h3.385
		v0.206c0,1.587-1.208,2.885-3.407,2.885c-2.609,0-3.644-1.689-3.644-4.101v-2.267c0-2.41,1.165-3.956,3.622-3.956
		c2.156,0,3.298,1.319,3.363,2.823H225.849z"/>
	<path fill-rule="evenodd" clip-rule="evenodd" fill="#FFFFFF" d="M269.01,147l1.99,6h-4L269.01,147z M269.934,144h-2.867L262,158
		h2.806l0.949-2.94h5.49l0.949,2.94H275L269.934,144z"/>
	<polygon fill-rule="evenodd" clip-rule="evenodd" fill="#FFFFFF" points="312,158 321,158 321,155.68 314.728,155.68 314.728,144 
		312,144 	"/>
</g>
</svg>
